<?xml version="1.0" encoding="utf-8"?>
<!-- Svg Vector Icons : http://www.onlinewebfonts.com/icon -->
<!DOCTYPE svg PUBLIC "-//W3C//DTD SVG 1.1//EN" "http://www.w3.org/Graphics/SVG/1.1/DTD/svg11.dtd">
<svg version="1.1" xmlns="http://www.w3.org/2000/svg" xmlns:xlink="http://www.w3.org/1999/xlink" x="0px" y="0px" viewBox="0 0 1000 1000" enable-background="new 0 0 1000 1000" xml:space="preserve">
<metadata> Svg Vector Icons : http://www.onlinewebfonts.com/icon </metadata>
<g><g transform="translate(0.000000,511.000000) scale(0.100000,-0.100000)"><path d="M6091.7,5002.7c-188.1-27.2-296.8-136-290-290c2.3-45.3,61.2-546.1,129.2-1112.5c70.2-566.5,122.3-1033.2,117.8-1037.8c-4.5-4.5-97.5,22.7-208.5,58.9c-1243.9,416.9-2594.4-129.1-3203.9-1296C2310,699.9,2248.9-70.4,2475.4-745.7c38.5-108.8,65.7-201.7,61.2-203.9c-4.5-4.5-498.5,54.4-1098.9,129.2C397.7-691.3,341-684.5,268.5-720.7c-226.6-106.5-224.3-514.3,4.5-972c258.3-512.1,899.5-1275.7,1660.8-1980.3c799.8-736.4,1420.7-1110.3,1853.4-1117.1c237.9-2.3,380.7,79.3,403.3,233.4c4.5,43.1-49.9,555.1-124.6,1142c-74.8,586.8-131.4,1067.2-129.2,1069.5c2.3,2.3,88.4-27.2,192.6-63.5c271.9-95.1,532.5-135.9,885.9-133.7c355.7,0,605,45.3,919.9,163.1c668.4,251.5,1225.8,788.5,1509,1450.1C7571.2-625.6,7625.6-369.5,7637,6.6c13.6,392-22.7,650.3-129.2,963c-36.2,104.2-63.4,192.6-61.2,194.9c2.3,2.3,498.5-56.6,1103.5-129.2c1024.2-126.9,1103.5-133.7,1173.7-99.7c224.3,104.2,235.7,464.5,27.2,910.9c-240.2,514.3-849.7,1259.8-1615.5,1975.8C7224.6,4674.2,6538,5070.7,6091.7,5002.7z M6547.1,4422.7c385.2-181.3,885.9-586.8,1549.8-1253c670.7-673,999.2-1080.8,1200.9-1502.2c81.6-167.7,106.5-244.7,81.6-244.7c-6.8,0-471.3,56.7-1037.7,124.6c-564.2,68-1042.3,124.6-1060.4,124.6c-18.1,0,24.9,58.9,95.2,131.4c154.1,156.3,188.1,228.8,154.1,335.4c-36.3,104.2-122.4,167.7-231.1,167.7c-81.6,0-108.8-15.9-253.8-156.3l-160.9-158.6l-90.6,77l-90.6,77l262.8,267.4c145,147.3,276.4,290,290,317.2c81.6,160.9-36.3,346.7-219.8,346.7c-81.6,0-140.5-40.8-337.6-233.4c-154.1-149.5-163.1-156.3-174.5-104.2c-6.8,29.5-52.1,405.6-104.2,836.1c-49.9,430.5-97.4,820.2-104.2,867.8c-13.6,83.8-13.6,83.8,47.6,61.2C6395.3,4492.9,6479.1,4456.7,6547.1,4422.7z M5513.9,2215.8c235.7-56.6,598.2-228.8,786.2-371.6c573.3-435,897.3-1126.1,861-1837.6c-31.7-561.9-219.8-1003.8-600.4-1398c-299.1-310.4-620.8-500.7-1026.4-611.8c-276.4-74.8-806.6-74.8-1085.3,0c-1327.8,358-2003,1824-1404.8,3054.3c319.5,657.1,913.1,1092.1,1649.5,1210C4886.3,2290.5,5294.1,2267.9,5513.9,2215.8z M1714.1-1341.6l1092.1-138.2l68-65.7l65.7-68l-242.4-244.7C2468.6-2091.6,2455-2109.7,2455-2198c0-169.9,156.3-287.8,308.2-231.1c36.3,13.6,167.7,126.9,292.3,251.5l228.9,224.3l63.4-65.7c63.4-65.7,65.7-72.5,197.1-1128.4c72.5-582.3,133.7-1078.5,133.7-1098.9c0-61.2-47.6-49.9-265.1,61.2c-405.6,208.5-892.7,602.7-1502.2,1212.2c-582.3,580-951.6,1033.2-1153.3,1407.1c-90.6,169.9-169.9,360.3-147.3,360.3C617.5-1205.6,1113.7-1266.8,1714.1-1341.6z"/><path d="M5387,1900.8c-133.7-56.7-188.1-258.3-99.7-369.3c24.9-34,122.4-88.4,219.8-129.2c677.5-271.9,1037.7-1021.9,822.5-1708.4c-63.4-201.7-58.9-269.6,24.9-353.5c122.4-124.6,308.2-88.3,389.7,77.1c129.2,262.8,160.9,842.9,65.7,1178.2c-154.1,537-498.5,949.4-990.2,1191.8C5581.9,1903.1,5466.3,1932.5,5387,1900.8z"/><path d="M5939.9-924.7c-65.7-56.6-165.4-129.1-222-160.9c-219.8-126.9-278.7-228.8-217.5-376.1c34-83.8,131.4-151.8,217.5-151.8c63.4,0,208.5,74.8,373.9,192.6c203.9,147.3,285.5,240.2,299.1,348.9c11.3,81.6,4.5,99.7-68,172.2c-63.4,63.4-97.4,79.3-169.9,79.3C6078.1-820.4,6041.8-838.5,5939.9-924.7z"/></g></g>
</svg>